<svg xmlns="http://www.w3.org/2000/svg" height="496" width="496" style=""><rect id="backgroundrect" width="100%" height="100%" x="0" y="0" fill="none" stroke="none"/><g class="currentLayer" style=""><title>Layer 1</title><path d="m384 120v48c0 4.414062 3.574219 8 8 8h96c4.425781 0 8-3.585938 8-8v-48c0-21.585938-12.296875-40.320312-30.230469-49.664062 8.628907-7.34375 14.230469-18.144532 14.230469-30.335938 0-22.054688-17.945312-40-40-40s-40 17.945312-40 40c0 2.734375.28125 5.414062.808594 8h-121.945313c-3.574219-13.761719-15.992187-24-30.863281-24s-27.289062 10.238281-30.863281 24h-121.945313c.527344-2.585938.808594-5.265625.808594-8 0-22.054688-17.945312-40-40-40s-40 17.945312-40 40c0 12.191406 5.601562 22.992188 14.230469 30.335938-17.933594 9.34375-30.230469 28.078124-30.230469 49.664062v48c0 4.414062 3.574219 8 8 8h96c4.425781 0 8-3.585938 8-8v-48c0-21.585938-12.296875-40.320312-30.230469-49.664062 2.230469-1.894532 4.253907-4 6.023438-6.335938h129.34375c2.910156 11.191406 11.671875 19.953125 22.863281 22.863281v33.542969c-66.847656 4.160156-120 59.714844-120 127.59375s53.152344 123.433594 120 127.59375v33.542969c-11.191406 2.910156-19.953125 11.671875-22.863281 22.863281h-105.777344c-2.617187-18.152344-13.917969-33.496094-29.589844-41.664062 8.628907-7.34375 14.230469-18.144532 14.230469-30.335938 0-22.054688-17.945312-40-40-40s-40 17.945312-40 40c0 12.191406 5.601562 22.992188 14.230469 30.335938-17.933594 9.34375-30.230469 28.078124-30.230469 49.664062v48c0 4.414062 3.574219 8 8 8h96c4.425781 0 8-3.585938 8-8v-40h105.136719c3.574219 13.761719 15.992187 24 30.863281 24s27.289062-10.238281 30.863281-24h105.136719v40c0 4.414062 3.574219 8 8 8h96c4.425781 0 8-3.585938 8-8v-48c0-21.585938-12.296875-40.320312-30.230469-49.664062 8.628907-7.34375 14.230469-18.144532 14.230469-30.335938 0-22.054688-17.945312-40-40-40s-40 17.945312-40 40c0 12.191406 5.601562 22.992188 14.230469 30.335938-15.671875 8.167968-26.972657 23.519531-29.589844 41.664062h-105.777344c-2.910156-11.191406-11.671875-19.953125-22.863281-22.863281v-33.542969c66.847656-4.160156 120-59.722656 120-127.59375s-53.152344-123.433594-120-127.59375v-33.542969c11.191406-2.910156 19.953125-11.671875 22.863281-22.863281h129.34375c1.769531 2.335938 3.792969 4.441406 6.023438 6.335938-17.933594 9.34375-30.230469 28.078124-30.230469 49.664062zm-288 0v40h-80v-40c0-22.054688 17.945312-40 40-40s40 17.945312 40 40zm-64-80c0-13.230469 10.769531-24 24-24s24 10.769531 24 24-10.769531 24-24 24-24-10.769531-24-24zm0 320c0-13.230469 10.769531-24 24-24s24 10.769531 24 24-10.769531 24-24 24-24-10.769531-24-24zm64 120h-80v-40c0-22.054688 17.945312-40 40-40s40 17.945312 40 40zm320-120c0-13.230469 10.769531-24 24-24s24 10.769531 24 24-10.769531 24-24 24-24-10.769531-24-24zm-16 80c0-22.054688 17.945312-40 40-40s40 17.945312 40 40v40h-80zm-160-302.105469v102.105469h-39.808594c1.710938-54.167969 20.496094-93.375 39.808594-102.105469zm0 118.105469v102.105469c-19.3125-8.738281-38.097656-47.945313-39.808594-102.105469zm16 102.105469v-102.105469h39.808594c-1.710938 54.167969-20.496094 93.375-39.808594 102.105469zm0-118.105469v-102.105469c19.3125 8.738281 38.097656 47.945313 39.808594 102.105469zm-44.449219-97.792969c-15.726562 21.472657-26.144531 56.746094-27.359375 97.792969h-47.792968c3.242187-45.472656 33.679687-83.457031 75.152343-97.792969zm-75.144531 113.792969h47.792969c1.214843 41.046875 11.625 76.320312 27.351562 97.792969-41.472656-14.335938-71.910156-52.320313-75.144531-97.792969zm127.59375 184c0 8.824219-7.175781 16-16 16s-16-7.175781-16-16 7.175781-16 16-16 16 7.175781 16 16zm20.449219-86.207031c15.726562-21.464844 26.136719-56.746094 27.351562-97.792969h47.792969c-3.234375 45.472656-33.671875 83.457031-75.144531 97.792969zm75.144531-113.792969h-47.792969c-1.214843-41.046875-11.625-76.320312-27.351562-97.792969 41.472656 14.335938 71.910156 52.320313 75.144531 97.792969zm-111.59375-168c-8.824219 0-16-7.175781-16-16s7.175781-16 16-16 16 7.175781 16 16-7.175781 16-16 16zm168-32c0-13.230469 10.769531-24 24-24s24 10.769531 24 24-10.769531 24-24 24-24-10.769531-24-24zm24 40c22.054688 0 40 17.945312 40 40v40h-80v-40c0-22.054688 17.945312-40 40-40zm0 0" id="svg_1" class="" fill="#919191" fill-opacity="1"/></g></svg>