<svg xmlns="http://www.w3.org/2000/svg" xmlns:xlink="http://www.w3.org/1999/xlink" version="1.1" width="1300" height="316" style="" xml:space="preserve"><rect id="backgroundrect" width="100%" height="100%" x="0" y="0" fill="none" stroke="none" class="" style=""/>

<g class="currentLayer" style=""><title>Layer 1</title><g id="svg_1" class="selected" fill="#b6b6b6" fill-opacity="1">
	<g id="XMLID_703_" fill="#b6b6b6" fill-opacity="1">
		<polygon id="XMLID_720_" style="" points="54.36636734008789,101.80366706848145 0,311.2748737335205 22.91907501220703,311.2748737335205 70.3566665649414,118.86021614074707 71.42256927490234,118.86021614074707 111.93096923828125,311.2748737335205 135.91635131835938,311.2748737335205 275.0306701660156,122.05769538879395 275.5633850097656,122.05769538879395 223.8623504638672,311.2748737335205 247.3142547607422,311.2748737335205 301.1478576660156,101.80366706848145 266.50262451171875,101.80366706848145 128.45404052734375,289.954927444458 89.01195526123047,101.80366706848145 " fill="#b6b6b6" fill-opacity="1"/>
		<path id="XMLID_718_" style="" d="M324.0672781447647,159.90175766874393 l-38.909310553018024,151.37310062333046 h22.386275986489167 l38.908936669494246,-151.37310062333046 H324.0672781447647 z" fill="#b6b6b6" fill-opacity="1"/>
		<polygon id="XMLID_717_" style="" points="377.90045166015625,159.90181159973145 338.9916076660156,311.2748737335205 361.37744140625,311.2748737335205 375.7686462402344,256.3752613067627 414.144775390625,229.72453498840332 462.64837646484375,311.2748737335205 486.6336669921875,311.2748737335205 431.7341613769531,218.5319538116455 517.5479125976562,159.90181159973145 488.2327575683594,159.90181159973145 381.6314697265625,233.98907661437988 381.0987548828125,233.45588874816895 400.2867431640625,159.90181159973145 " fill="#b6b6b6" fill-opacity="1"/>
		<path id="XMLID_716_" style="" d="M530.8730977711657,159.90175766874393 l-38.908936669494246,151.37310062333046 h22.385902102965385 l20.25439213388021,-79.41809482077844 c7.461967367655127,-28.248769639401907 28.78192754431603,-54.89956109815655 68.22476988577198,-55.9658769079848 c4.263767705217911,0 8.528283177483388,0.5331579049141303 12.7920508827013,0.5331579049141303 l4.7969256101320426,-18.654918419137818 c-3.7309836838275627,-0.5331579049141303 -7.995125272569259,-0.5331579049141303 -11.726108956396823,-0.5331579049141303 c-32.51328511166738,-0.5331579049141303 -51.70098755219555,15.457092640224388 -66.09251214963925,36.77705281688529 h-0.5327840213903478 l9.061067198873735,-35.177952985666685 h-20.25439213388021 V159.90175766874393 z" fill="#b6b6b6" fill-opacity="1"/>
		<path id="XMLID_713_" style="" d="M774.4563440979758,214.80131876690038 c0,-37.31095848884699 -29.84786947062051,-59.16407657042202 -71.95575356959954,-59.16407657042202 c-65.02657022333476,0 -101.27046513530591,47.437967614025204 -101.27046513530591,97.00669743008801 c0,37.84411639376111 25.5841017654026,62.895060254249586 72.4881637074661,62.895060254249586 C740.877117060004,316.0717839022064 774.4563440979758,265.9691484141817 774.4563440979758,214.80131876690038 zM752.0700681114866,218.5319285672041 c0,35.177952985666685 -25.5841017654026,81.54960478986362 -74.08726353868471,81.54960478986362 c-36.77780058393286,0 -54.36640319324241,-19.720860345442297 -54.36640319324241,-49.03631967819624 c0,-35.71111089058081 26.650043691707076,-79.95050495864501 75.15357934851298,-79.95050495864501 C733.9486814807868,171.09470872022652 752.0700681114866,190.2827850442785 752.0700681114866,218.5319285672041 z" fill="#b6b6b6" fill-opacity="1"/>
		<polygon id="XMLID_712_" style="" points="987.1253662109375,159.90181159973145 1001.51611328125,101.80366706848145 784.5833129882812,101.80366706848145 770.1925659179688,159.90181159973145 840.01611328125,159.90181159973145 840.01611328125,159.90181159973145 917.3019409179688,159.90181159973145 917.3019409179688,159.90181159973145 " fill="#b6b6b6" fill-opacity="1"/>
		<polygon id="XMLID_711_" style="" points="833.087646484375,187.61738777160645 802.1727294921875,311.2748737335205 879.990966796875,311.2748737335205 910.3727416992188,187.61738777160645 910.3727416992188,187.61738777160645 " fill="#b6b6b6" fill-opacity="1"/>
		<path id="XMLID_708_" style="" d="M999.3846720056482,187.61736940323155 l-30.38177514258221,123.65748888884266 h69.82424360051436 l30.91455916397256,-123.65748888884266 H999.3846720056482 zM1076.1377250689036,159.90175766874393 l14.390776830396126,-58.09813464411754 h-69.82386971699059 l-14.390776830396126,58.09813464411754 H1076.1377250689036 z" fill="#b6b6b6" fill-opacity="1"/>
		<polygon id="XMLID_707_" style="" points="1119.8444213867188,101.80366706848145 1067.6094360351562,311.2748737335205 1137.4332885742188,311.2748737335205 1148.0934448242188,268.10180854797363 1164.0836791992188,256.3752613067627 1188.6015014648438,311.2748737335205 1264.2881469726562,311.2748737335205 1217.9168090820312,220.66377449035645 1299.9998168945312,158.83543586730957 1216.3178100585938,158.83543586730957 1165.1489868164062,203.60803413391113 1164.6161499023438,203.60803413391113 1189.6674194335938,101.80366706848145 " fill="#b6b6b6" fill-opacity="1"/>
		<g id="XMLID_704_" fill="#b6b6b6" fill-opacity="1">
			<path id="XMLID_706_" style="" d="M321.4022363872415,10.127009109584428 c10.660167030092344,73.55485340081816 50.102635488024504,117.79387358535857 130.05314044666952,121.52485726918613 C375.7686395804839,160.96732571152447 297.9496445909241,92.74292970927644 321.4022363872415,10.127009109584428 z" fill="#b6b6b6" fill-opacity="1"/>
			<path id="XMLID_705_" style="" d="M353.9155214989088,-1.559368811854256e-8 c8.528283177483388,59.16370268689825 40.50841038423664,94.87443969395527 105.00219658618104,98.07301323991628 C397.6217576620591,121.52448337006854 334.72707129133306,66.62529615543585 353.9155214989088,-1.559368811854256e-8 z" fill="#b6b6b6" fill-opacity="1"/>
		</g>
	</g>
</g></g></svg>